<svg xmlns="http://www.w3.org/2000/svg" viewBox="0 0 64 64" id="Database"><path fill="#ea4335" d="M26 42h28c.554 0 1 .446 1 1v8c0 .554-.446 1-1 1H26c-.554 0-1-.446-1-1v-8c0-.554.446-1 1-1z" class="coloreff4f7 svgShape"></path><path fill="#fbbc05" d="M26 46h28c.554 0 1 .446 1 1v4c0 .554-.446 1-1 1H26c-.554 0-1-.446-1-1v-4c0-.554.446-1 1-1z" class="colorcfd3d6 svgShape"></path><path fill="#dfe2e6" d="M26 44h28c.554 0 1 .446 1 1v4c0 .554-.446 1-1 1H26c-.554 0-1-.446-1-1v-4c0-.554.446-1 1-1z" class="colordfe3e6 svgShape"></path><path fill="#ea4335" d="M26 32h28c.554 0 1 .446 1 1v8c0 .554-.446 1-1 1H26c-.554 0-1-.446-1-1v-8c0-.554.446-1 1-1z" class="coloreff4f7 svgShape"></path><path fill="#fbbc05" d="M26 36h28c.554 0 1 .446 1 1v4c0 .554-.446 1-1 1H26c-.554 0-1-.446-1-1v-4c0-.554.446-1 1-1z" class="colorcfd3d6 svgShape"></path><path fill="#dfe2e6" d="M26 34h28c.554 0 1 .446 1 1v4c0 .554-.446 1-1 1H26c-.554 0-1-.446-1-1v-4c0-.554.446-1 1-1z" class="colordfe3e6 svgShape"></path><path fill="#ea4335" d="M26 22h28c.554 0 1 .446 1 1v8c0 .554-.446 1-1 1H26c-.554 0-1-.446-1-1v-8c0-.554.446-1 1-1z" class="coloreff4f7 svgShape"></path><path fill="#fbbc05" d="M26 26h28c.554 0 1 .446 1 1v4c0 .554-.446 1-1 1H26c-.554 0-1-.446-1-1v-4c0-.554.446-1 1-1z" class="colorcfd3d6 svgShape"></path><path fill="#dfe2e6" d="M26 24h28c.554 0 1 .446 1 1v4c0 .554-.446 1-1 1H26c-.554 0-1-.446-1-1v-4c0-.554.446-1 1-1z" class="colordfe3e6 svgShape"></path><path fill="#ea4335" d="M26 12h28c.554 0 1 .446 1 1v8c0 .554-.446 1-1 1H26c-.554 0-1-.446-1-1v-8c0-.554.446-1 1-1z" class="coloreff4f7 svgShape"></path><path fill="#fbbc05" d="M26 16h28c.554 0 1 .446 1 1v4c0 .554-.446 1-1 1H26c-.554 0-1-.446-1-1v-4c0-.554.446-1 1-1z" class="colorcfd3d6 svgShape"></path><path fill="#dfe2e6" d="M26 14h28c.554 0 1 .446 1 1v4c0 .554-.446 1-1 1H26c-.554 0-1-.446-1-1v-4c0-.554.446-1 1-1z" class="colordfe3e6 svgShape"></path><path fill="#34a853" d="M35 16h2v2h-2zm4 0h2v2h-2zm4 0h2v2h-2zm-8 10h2v2h-2zm4 0h2v2h-2zm4 0h2v2h-2zm-8 10h2v2h-2zm4 0h2v2h-2zm4 0h2v2h-2zm-8 10h2v2h-2zm4 0h2v2h-2zm4 0h2v2h-2z" class="color5e5c5c svgShape"></path><path style="line-height:normal;text-indent:0;text-align:start;text-decoration-line:none;text-decoration-style:solid;text-decoration-color:#000;text-transform:none;block-progression:tb;isolation:auto;mix-blend-mode:normal" fill="#34a853" d="M362.624 978.39c-4.395 0-7.988 3.568-7.988 7.951v6.05h3v-6.05c0-2.763 2.194-4.95 4.988-4.95 2.795 0 4.989 2.187 4.989 4.95v6.05h3v-6.05c0-4.383-3.593-7.95-7.989-7.95z" color="#000" font-family="sans-serif" font-weight="400" overflow="visible" transform="translate(-341.624 -960.39)" class="color5e5c5c svgShape"></path><path fill="#4285f4" d="M10 30h22c.554 0 1 .446 1 1v20c0 .554-.446 1-1 1H10c-.554 0-1-.446-1-1V31c0-.554.446-1 1-1z" class="color49b2d6 svgShape"></path><path fill="#ea4335" fill-rule="evenodd" d="M9 50h24v-6H9z" class="coloreff4f7 svgShape"></path><path fill="#34a853" d="M12 46h2v2h-2zm4 0h2v2h-2zm4 0h2v2h-2zm4 0h2v2h-2zm4 0h2v2h-2z" class="color5e5c5c svgShape"></path><path fill="#454746" d="M23 36a2 2 0 0 1-2 2 2 2 0 0 1-2-2 2 2 0 0 1 2-2 2 2 0 0 1 2 2z" class="color474545 svgShape"></path><path fill="#454746" d="M20 36h2v5h-2z" class="color474545 svgShape"></path></svg>