<svg xmlns="http://www.w3.org/2000/svg" viewBox="0 0 64 64" id="WebDesign"><path fill="#676968" d="M59.96 51.95H4.04V19.28c0-1.24 1-2.24 2.24-2.24h51.45c1.24 0 2.24 1 2.24 2.24v32.67z" class="color696867 svgShape"></path><path fill="#4285f4" d="M57.418 19.588v29.82H6.578v-29.82z" class="color57b3e5 svgShape"></path><path fill="#484c49" d="M59.17 56.79H4.83C2.16 56.79 0 54.62 0 51.95h64c0 2.67-2.16 4.84-4.83 4.84z" class="color48484c svgShape"></path><path fill="#e3e3e4" d="M38.99 51.95H25.01c0 1.33 1.08 2.42 2.42 2.42h9.16c1.32 0 2.4-1.08 2.4-2.42z" class="colore4e4e3 svgShape"></path><path fill="#c7c7c7" d="M50.32 49.41H13.68c-1.58 0-2.85-1.28-2.85-2.85V10.07c0-1.58 1.28-2.85 2.85-2.85h36.63c1.58 0 2.85 1.28 2.85 2.85v36.49a2.84 2.84 0 0 1-2.84 2.85z" class="colorc7c7c7 svgShape"></path><path fill="#e3e3e4" d="M12.75 46.11V14.93c0-.76.61-1.37 1.37-1.37h35.75c.76 0 1.37.61 1.37 1.37v31.19c0 .76-.61 1.37-1.37 1.37H14.12c-.75 0-1.37-.62-1.37-1.38z" class="colore4e4e3 svgShape"></path><path fill="#ea4335" d="M16.44 10.38a1.05 1.05 0 1 1-2.1 0 1.05 1.05 0 0 1 2.1 0z" class="colorda4765 svgShape"></path><path fill="#fbbc05" d="M19.67 10.38a1.05 1.05 0 1 1-2.1 0 1.05 1.05 0 0 1 2.1 0z" class="colorffd464 svgShape"></path><path fill="#34a853" d="M22.9 10.38a1.05 1.05 0 1 1-2.1 0 1.05 1.05 0 0 1 2.1 0z" class="color1a7d57 svgShape"></path><path fill="#f4f4f4" d="M49.3 11.44H24.96a.37.37 0 0 1-.37-.37V9.7c0-.2.16-.37.37-.37H49.3c.2 0 .37.16.37.37v1.37c-.01.2-.17.37-.37.37z" class="colorf4f4f4 svgShape"></path><path fill="#7c96c2" d="M12.75 16.38h38.43V29.4H12.75zM17.81 33.91h4.8v4.8h-4.8zM17.81 40.72h4.8v.96h-4.8zM17.81 43.7h4.8v.96h-4.8zM25.65 33.91h4.8v4.8h-4.8zM25.65 40.72h4.8v.96h-4.8zM25.65 43.7h4.8v.96h-4.8zM33.48 33.91h4.8v4.8h-4.8zM33.48 40.72h4.8v.96h-4.8zM33.48 43.7h4.8v.96h-4.8zM41.32 33.91h4.8v4.8h-4.8zM41.32 40.72h4.8v.96h-4.8zM41.32 43.7h4.8v.96h-4.8z" class="color7ca3c2 svgShape"></path></svg>